# xmcd
#
# Track frame offsets:
#	150
#	17395
#	23082
#	68656
#	92022
#	113169
#	148059
#	166872
#	178044
#	200877
#
# Disc length: 2918 seconds
#
# Revision: 0
# Processed by: cddbd v1.5.1PL0 Copyright (c) Steve Scherf et al.
# Submitted via: audiograbber 1.83.01
#
DISCID=7f0b640a
DTITLE=William Pint and Felicia Dale - Seven Seas
DYEAR=2004
DGENRE=Sea Music
TTITLE0=High Barbaree
TTITLE1=Oh Mary, Come Down!
TTITLE2=Thae Mary Stanford Of Rye
TTITLE3=Billy Boy
TTITLE4=Lost
TTITLE5=The Packet Rat
TTITLE6=Cheerily Man-The Seven Stars
TTITLE7=The Wild Goose Shanty
TTITLE8=Heaven's A Bar
TTITLE9=The Prince's Royal
EXTD=Lyrics available at www.PintNDale.com
EXTT0=
EXTT1=
EXTT2=
EXTT3=
EXTT4=
EXTT5=
EXTT6=
EXTT7=
EXTT8=
EXTT9=
PLAYORDER=
